<svg width="800" height="600" xmlns="http://www.w3.org/2000/svg">
 <g id="Layer_1">
  <title>Layer 1</title>
  <path id="svg_20" d="m185.30009,311.83312l208.5,-242.00001l208.5,242.00001l-417,0z" stroke="#000" fill="#000000"/>
  <path transform="rotate(180, 393.8, 432.833)" id="svg_19" d="m185.30009,553.83312l208.5,-242.00001l208.5,242.00001l-417,0z" stroke="#000" fill="#000000"/>
  <path id="svg_14" d="m278.46993,336.42497l0,-54l151.00003,54l-151.00003,0z" stroke="#000" fill="#00438c"/>
  <path id="svg_1" d="m73.32,317.90188l144.5,-48.99999l144.5,48.99999l-289.00001,0z" stroke="#000" fill="#007bff"/>
  <path transform="rotate(180, 214.82, 349.402)" id="svg_3" d="m72.32004,380.90188l142.50002,-62.99999l142.50002,62.99999l-285.00004,0z" stroke="#000" fill="#c2defc"/>
  <path transform="rotate(180, 360.32, 293.402)" id="svg_4" d="m219.31999,317.90206l141,-48.99999l141,48.99999l-282,0z" stroke="#000" fill="#0064c9"/>
  <path id="svg_9" d="m250.46992,393.42497l0,-62l172.00003,62l-172.00003,0z" stroke="#000" fill="#1a71ce"/>
  <path id="svg_11" d="m603.46991,268.42493l0,-18.99999l73.00005,18.99999l-73.00005,0z" stroke="#000" fill="#1158a3"/>
  <path id="svg_10" d="m603.4699,310.42496l0,-41l100.00005,41l-100.00005,0z" stroke="#000" fill="#4992ff"/>
  <path transform="rotate(180, 411.32, 244.402)" id="svg_13" d="m221.31998,219.9021l190,48.99999l190,-48.99999l-380.00001,0z" stroke="#000" fill="#3d9df7"/>
  <path id="svg_15" d="m496.11499,268.71309l53.5,17.00002l53.5,-17.00002l-107,0z" stroke="#000" fill="#80dbfc"/>
  <path id="svg_16" d="m452.11499,285.71311l48.5,-17.00003l48.5,17.00003l-97,0z" stroke="#000" fill="#afe8ff"/>
 </g>

</svg>